<svg width="18" height="18" viewBox="0 0 18 18" fill="none" xmlns="http://www.w3.org/2000/svg">
<g clip-path="url(#clip0_159_132)">
<path d="M17.9697 5.29447C17.9696 4.99262 17.8969 4.7259 17.75 4.49699C17.6058 4.27188 17.3897 4.08322 17.0999 3.93404C14.7075 2.70798 12.3128 1.48566 9.92116 0.258348C9.2764 -0.072494 8.65125 -0.0604326 8.01127 0.275159C7.05902 0.774296 2.29148 3.20199 0.87082 3.93336C0.28575 4.23439 0.00105469 4.69509 0.000914062 5.29391C0 7.7596 0.000914062 10.2252 0 12.691C0.000140625 12.9862 0.0696797 13.2477 0.210094 13.4732C0.354445 13.7051 0.573539 13.899 0.870047 14.0515C2.29078 14.7829 7.05895 17.2104 8.01098 17.7097C8.65125 18.0454 9.2764 18.0574 9.92138 17.7265C12.3131 16.4991 14.7079 15.2768 17.1006 14.0508C17.3971 13.8983 17.6162 13.7043 17.7606 13.4726C17.9008 13.2471 17.9705 12.9856 17.9706 12.6903C17.9706 12.6903 17.9706 7.76022 17.9697 5.29447Z" fill="#5C8DBC"/>
<path d="M9.01279 8.96838L0.210083 13.4732C0.354435 13.7051 0.573528 13.899 0.870036 14.0515C2.29077 14.7829 7.05894 17.2104 8.01097 17.7096C8.65124 18.0454 9.27639 18.0574 9.92136 17.7264C12.313 16.4991 14.7079 15.2768 17.1006 14.0508C17.3971 13.8983 17.6162 13.7043 17.7606 13.4726L9.01279 8.96838Z" fill="#1A4674"/>
<path d="M6.40555 10.3027C6.91777 11.0975 7.8807 11.6336 8.98531 11.6336C10.0967 11.6336 11.0652 11.0907 11.5748 10.2874L9.01281 8.96838L6.40555 10.3027Z" fill="#1A4674"/>
<path d="M17.9697 5.29443C17.9695 4.99259 17.8969 4.72586 17.75 4.49695L9.01279 8.96838L17.7606 13.4725C17.9008 13.2471 17.9705 12.9855 17.9706 12.6903C17.9706 12.6903 17.9706 7.76018 17.9697 5.29443Z" fill="#1B598E"/>
<path d="M17.4887 9.29038H16.8051V9.89807H16.1214V9.29038H15.4379V8.68288H16.1214V8.07532H16.8051V8.68288H17.4887V9.29038ZM14.9944 9.29038H14.3109V9.89807H13.6273V9.29038H12.9437V8.68288H13.6273V8.07532H14.3109V8.68288H14.9944V9.29038Z" fill="white"/>
<path d="M11.5748 10.2875C11.0651 11.0908 10.0967 11.6337 8.98529 11.6337C7.88068 11.6337 6.91775 11.0976 6.40553 10.3028C6.14821 9.90401 6.01307 9.45219 6.0136 8.99245C6.0136 7.53378 7.34413 6.35128 8.98529 6.35128C10.0828 6.35128 11.0407 6.88066 11.5554 7.66733L14.1528 6.33796C13.1204 4.754 11.193 3.68835 8.98529 3.68835C5.68932 3.68835 3.01752 6.06312 3.01752 8.99245C3.01752 9.95348 3.30517 10.8547 3.8079 11.6321C4.8377 13.2244 6.77066 14.2966 8.98529 14.2966C11.204 14.2966 13.14 13.2201 14.1683 11.6231L11.5748 10.2875Z" fill="white"/>
</g>
<defs>
<clipPath id="clip0_159_132">
<rect width="18" height="18" fill="white"/>
</clipPath>
</defs>
</svg>
