<svg width="18" height="18" viewBox="0 0 18 18" fill="none" xmlns="http://www.w3.org/2000/svg">
<path d="M9.02796 4.74785C12.7338 1.87091 10.8318 0 10.8318 0C11.1149 2.97415 7.76982 3.6764 6.87314 5.72017C6.26131 7.11478 7.29214 8.33586 9.02673 9.87491C8.87339 9.53404 8.63686 9.20284 8.39746 8.86753C7.58076 7.72386 6.73004 6.53242 9.02796 4.74785Z" fill="#E76F00"/>
<path d="M9.61961 10.5058C9.61961 10.5058 10.7345 9.60631 9.85158 8.60669C6.85863 5.21541 13.125 3.67639 13.125 3.67639C9.29909 5.51952 9.87026 6.61352 10.8319 7.9426C11.8615 9.36775 9.61961 10.5058 9.61961 10.5058Z" fill="#E76F00"/>
<path d="M12.9021 13.1882C16.3363 11.4333 14.7485 9.7469 13.6402 9.97409C13.3685 10.0297 13.2474 10.0779 13.2474 10.0779C13.2474 10.0779 13.3482 9.92251 13.5408 9.85523C15.7334 9.09726 17.4196 12.0909 12.833 13.2766C12.833 13.2766 12.8862 13.2299 12.9021 13.1882Z" fill="#5382A1"/>
<path d="M5.75606 10.967C3.60738 10.6849 6.93422 9.90784 6.93422 9.90784C6.93422 9.90784 5.64227 9.82217 4.05333 10.5774C2.17449 11.4712 8.7008 11.8777 12.0791 11.0039C12.4303 10.7681 12.9158 10.5637 12.9158 10.5637C12.9158 10.5637 11.5333 10.8064 10.1566 10.9207C8.47192 11.0594 6.66332 11.0865 5.75606 10.967Z" fill="#5382A1"/>
<path d="M6.57361 12.6427C5.37539 12.5208 6.15994 11.9497 6.15994 11.9497C3.05943 12.9616 7.88502 14.1092 12.2174 12.8634C11.7569 12.7037 11.4641 12.4117 11.4641 12.4117C9.34667 12.8127 8.12307 12.7999 6.57361 12.6427Z" fill="#5382A1"/>
<path d="M7.09565 14.4557C5.89836 14.3204 6.59783 13.9204 6.59783 13.9204C3.78333 14.6937 8.30975 16.2914 11.8931 14.7812C11.3062 14.5568 10.8859 14.2977 10.8859 14.2977C9.28748 14.5951 8.54611 14.6185 7.09565 14.4557Z" fill="#5382A1"/>
<path d="M14.5905 15.3781C14.5905 15.3781 15.1081 15.7975 14.0204 16.1219C11.9521 16.7381 5.41177 16.9242 3.5949 16.1465C2.94179 15.8671 4.16657 15.4794 4.55183 15.398C4.95363 15.3123 5.18325 15.3283 5.18325 15.3283C4.45691 14.8251 0.488525 16.3163 3.1675 16.7433C10.4735 17.9084 16.4856 16.2186 14.5905 15.3781Z" fill="#5382A1"/>
<path d="M15.75 16.2944C15.6301 17.8283 10.5681 18.1509 7.27167 17.9434C5.12119 17.8078 4.6902 17.4689 4.6839 17.4639C6.74208 17.7976 10.2121 17.8584 13.0257 17.3376C15.5196 16.8759 15.75 16.2944 15.75 16.2944Z" fill="#5382A1"/>
</svg>
